<svg width="32" height="33" viewBox="0 0 32 33" fill="none" xmlns="http://www.w3.org/2000/svg">
<path d="M25.6667 32H6.33333C3.4 32 1 29.5404 1 26.5342V10H31V26.5342C31 29.5404 28.6 32 25.6667 32Z" stroke="#5E5E5E" stroke-width="2" stroke-miterlimit="10" stroke-linecap="round" stroke-linejoin="round"/>
<path d="M6.33333 1H25.6667C28.6 1 31 3.36496 31 6.25547V10H1V6.25547C1 3.36496 3.4 1 6.33333 1Z" stroke="#5E5E5E" stroke-width="2" stroke-miterlimit="10" stroke-linecap="round" stroke-linejoin="round"/>
<path d="M8 16.1002L11.307 13.9624V27.19" stroke="#5E5E5E" stroke-width="2" stroke-miterlimit="10" stroke-linejoin="bevel"/>
<path d="M22.5 13.9624H16.5844C16.5844 13.9624 16.1876 17.69 15.923 20.4958C17.2458 17.3559 23 18.0188 23 22.5C23 27.5104 16.5 28 15.7246 23.7693" stroke="#5E5E5E" stroke-width="2" stroke-miterlimit="10" stroke-linecap="square" stroke-linejoin="bevel"/>
</svg>
