<svg width="38" height="32" viewBox="0 0 38 32" fill="none" xmlns="http://www.w3.org/2000/svg">
<path d="M37 3V24.9655C31.24 24.9655 26.44 27.6207 23.96 29.4713C22.52 30.4368 20.84 31 19.16 31H19C19 31 25.32 22.3908 34.04 22.3908V3.24138C35 3.08046 36.04 3 37 3Z" stroke="#5E5E5E" stroke-width="2" stroke-miterlimit="10" stroke-linecap="round" stroke-linejoin="round"/>
<path d="M1 3V24.9655C6.76 24.9655 11.56 27.6207 14.04 29.4713C15.48 30.4368 17.16 31 18.84 31H19C19 31 12.68 22.3908 3.96 22.3908V3.24138C3 3.08046 1.96 3 1 3Z" stroke="#5E5E5E" stroke-width="2" stroke-miterlimit="10" stroke-linecap="round" stroke-linejoin="round"/>
<path d="M34 1V22.5526C25.3032 22.5526 19 31 19 31V9.44737C19 9.44737 25.3032 1 34 1Z" stroke="#5E5E5E" stroke-width="2" stroke-miterlimit="10" stroke-linecap="round" stroke-linejoin="round"/>
<path d="M4 1V22.5526C12.6968 22.5526 19 31 19 31V9.44737C19 9.44737 12.6968 1 4 1Z" stroke="#5E5E5E" stroke-width="2" stroke-miterlimit="10" stroke-linecap="round" stroke-linejoin="round"/>
</svg>
