<svg width="48" height="33" viewBox="0 0 48 33" fill="none" xmlns="http://www.w3.org/2000/svg">
<path d="M32.8008 16C36.9429 16 40.3008 12.6421 40.3008 8.5C40.3008 4.35786 36.9429 1 32.8008 1C28.6586 1 25.3008 4.35786 25.3008 8.5C25.3008 12.6421 28.6586 16 32.8008 16Z" stroke="#5D5D5D" stroke-width="2" stroke-miterlimit="10" stroke-linecap="round" stroke-linejoin="round"/>
<path d="M32.8004 19.5C25.1004 19.5 18.9004 23.9 18.9004 29.3C18.9004 30.3 19.8004 31.4 21.1004 31.4C21.8004 31.4 43.7004 31.4 44.4004 31.4C45.7004 31.4 46.6004 30.2 46.6004 29.3C46.7004 23.9 40.5004 19.5 32.8004 19.5Z" stroke="#5D5D5D" stroke-width="2" stroke-miterlimit="10" stroke-linecap="round" stroke-linejoin="round"/>
<path d="M11.5008 19.0001C14.6488 19.0001 17.2008 16.4481 17.2008 13.3001C17.2008 10.1521 14.6488 7.6001 11.5008 7.6001C8.35276 7.6001 5.80078 10.1521 5.80078 13.3001C5.80078 16.4481 8.35276 19.0001 11.5008 19.0001Z" stroke="#5D5D5D" stroke-width="2" stroke-miterlimit="10" stroke-linecap="round" stroke-linejoin="round"/>
<path d="M17.8 23.8999C16 22.9999 13.8 22.3999 11.5 22.3999C5.7 22.3999 1 25.6999 1 29.7999C1 30.4999 1.7 31.3999 2.7 31.3999C3.1 31.3999 11.9 31.3999 16.2 31.3999" stroke="#5D5D5D" stroke-width="2" stroke-miterlimit="10" stroke-linecap="round" stroke-linejoin="round"/>
</svg>
