<svg width="31" height="33" viewBox="0 0 31 33" fill="none" xmlns="http://www.w3.org/2000/svg">
<path d="M1.7752 21.8595C4.38083 29.3789 12.4794 33.3515 19.9442 30.7267C27.409 28.102 31.3527 19.9441 28.747 12.4247C28.0428 10.3675 26.916 8.52309 25.4372 7.03339C24.8034 6.39494 23.747 6.324 23.0428 7.03339C22.409 7.67183 22.409 8.7359 23.0428 9.37435C24.1696 10.5094 25.0851 11.9281 25.578 13.5597C27.5498 19.3057 24.5217 25.6192 18.8175 27.6055C13.1132 29.5917 6.84562 26.5414 4.87379 20.7954C3.32449 16.1844 4.94421 11.2187 8.60618 8.38121L8.0428 10.5094C7.83154 11.3606 8.32449 12.2828 9.23999 12.5666C9.5921 12.6375 9.87379 12.6375 10.2259 12.4956C10.7189 12.3538 11.1414 11.9281 11.2822 11.3606L12.7611 5.54368V5.47274C12.7611 5.40181 12.7611 5.33087 12.8315 5.25993C12.8315 5.18899 12.8315 5.18899 12.8315 5.11805C12.8315 5.04712 12.8315 4.97618 12.8315 4.90524C12.8315 4.8343 12.8315 4.76336 12.7611 4.62149V4.55055C12.6907 4.47961 12.6907 4.33773 12.6203 4.26679C12.4794 3.98304 12.1977 3.77023 11.916 3.62835H11.8456C11.7752 3.62835 11.7048 3.55741 11.6344 3.55741L5.78928 2.06771C4.87379 1.78396 3.88787 2.4224 3.74703 3.41554C3.60618 4.26679 4.23999 5.04712 5.08506 5.25993L6.70478 5.68556C1.84562 9.37435 -0.267055 15.8297 1.7752 21.8595Z" stroke="#5E5E5E" stroke-width="2" stroke-miterlimit="10" stroke-linecap="round" stroke-linejoin="round"/>
<path d="M15.226 20.9373C17.0929 20.9373 18.6063 19.4128 18.6063 17.5322C18.6063 15.6517 17.0929 14.1272 15.226 14.1272C13.3591 14.1272 11.8457 15.6517 11.8457 17.5322C11.8457 19.4128 13.3591 20.9373 15.226 20.9373Z" stroke="#5E5E5E" stroke-width="2" stroke-miterlimit="10" stroke-linecap="round" stroke-linejoin="round"/>
</svg>
