<svg width="36" height="36" viewBox="0 0 36 36" fill="none" xmlns="http://www.w3.org/2000/svg">
<path d="M34.9169 14.7987H31.4808C31.1483 13.474 30.5941 12.1494 29.9291 11.0455L32.3676 8.61688C31.8134 7.84416 31.1483 7.07143 30.4833 6.2987L30.0399 5.85714C29.3749 5.19481 28.599 4.53247 27.7123 3.98052L25.2738 6.40909C24.0546 5.74675 22.8354 5.19481 21.5053 4.86364V1.33117C20.3969 1.11039 19.3993 1 18.4018 1H17.7368C16.7392 1 15.7416 1.11039 14.7441 1.33117V4.75325C13.3032 5.08442 12.0839 5.63636 10.8647 6.2987L8.42624 3.87013C8.09372 4.09091 7.76121 4.42208 7.42869 4.64286L4.54686 7.51299C4.32518 7.84416 3.99266 8.17533 3.77099 8.61688L6.20945 10.9351C5.54442 12.1494 4.99022 13.3636 4.6577 14.6883H1.22168C1.11084 15.2403 1 15.5714 1 16.013V20.0974C1 20.539 1.11084 20.9805 1.22168 21.3117H4.6577C4.99022 22.6364 5.54442 23.961 6.20945 25.0649L3.77099 27.4935C4.32518 28.2662 4.99022 29.039 5.65526 29.8117L6.09861 30.2532C6.76365 30.9156 7.53953 31.5779 8.42624 32.1299L10.8647 29.7013C12.0839 30.3636 13.3032 30.9156 14.6333 31.2468V34.6688C15.6308 34.8896 16.6284 35 17.6259 35H18.291C19.2885 35 20.2861 34.8896 21.2836 34.6688V31.2468C22.6137 30.9156 23.9438 30.3636 25.0522 29.7013L27.4906 32.1299C27.8231 31.9091 28.1557 31.5779 28.4882 31.3571L31.37 28.487C31.5917 28.1558 31.9242 27.8247 32.1459 27.4935L29.7074 25.0649C30.3725 23.8506 30.9266 22.6364 31.2592 21.3117H34.6952C34.806 20.8701 34.806 20.4286 34.9169 20.0974V16.013C35.0277 15.5714 35.0277 15.2403 34.9169 14.7987Z" stroke="#5D5D5D" stroke-width="2" stroke-miterlimit="10" stroke-linecap="round" stroke-linejoin="round"/>
<path d="M18 22C20.2091 22 22 20.2091 22 18C22 15.7909 20.2091 14 18 14C15.7909 14 14 15.7909 14 18C14 20.2091 15.7909 22 18 22Z" stroke="#5D5D5D" stroke-width="2" stroke-miterlimit="10" stroke-linecap="round" stroke-linejoin="round"/>
<path d="M18 27C22.9706 27 27 22.9706 27 18C27 13.0294 22.9706 9 18 9C13.0294 9 9 13.0294 9 18C9 22.9706 13.0294 27 18 27Z" stroke="#5D5D5D" stroke-width="2" stroke-miterlimit="10" stroke-linecap="round" stroke-linejoin="round"/>
</svg>
