<svg width="23" height="27" viewBox="0 0 23 27" fill="none" xmlns="http://www.w3.org/2000/svg">
<path d="M0 2C0 0.89543 0.895431 0 2 0H11C14.3137 0 17 2.68629 17 6V13C17 14.1046 16.1046 15 15 15H6C2.68629 15 0 12.3137 0 9V2Z" fill="#DE4973"/>
<path d="M18 5L23 2V14L18 11V5Z" fill="#DE4973"/>
<path d="M1.37988 25.3364H4.16162V26H0.386719V25.4023L3.01025 21.9175H0.42627V21.2451H4.02979V21.8208L1.37988 25.3364ZM4.79443 23.5786C4.79443 23.1128 4.88525 22.6938 5.06689 22.3218C5.25146 21.9497 5.50635 21.6626 5.83154 21.4604C6.15967 21.2583 6.5332 21.1572 6.95215 21.1572C7.59961 21.1572 8.12256 21.3813 8.521 21.8296C8.92236 22.2778 9.12305 22.874 9.12305 23.6182V23.6753C9.12305 24.1382 9.03369 24.5542 8.85498 24.9233C8.6792 25.2896 8.42578 25.5752 8.09473 25.7803C7.7666 25.9854 7.38867 26.0879 6.96094 26.0879C6.31641 26.0879 5.79346 25.8638 5.39209 25.4155C4.99365 24.9673 4.79443 24.374 4.79443 23.6357V23.5786ZM5.61182 23.6753C5.61182 24.2026 5.7334 24.626 5.97656 24.9453C6.22266 25.2646 6.55078 25.4243 6.96094 25.4243C7.37402 25.4243 7.70215 25.2632 7.94531 24.9409C8.18848 24.6157 8.31006 24.1616 8.31006 23.5786C8.31006 23.0571 8.18555 22.6353 7.93652 22.313C7.69043 21.9878 7.3623 21.8252 6.95215 21.8252C6.55078 21.8252 6.22705 21.9849 5.98096 22.3042C5.73486 22.6235 5.61182 23.0806 5.61182 23.6753ZM9.92725 23.5786C9.92725 23.1128 10.0181 22.6938 10.1997 22.3218C10.3843 21.9497 10.6392 21.6626 10.9644 21.4604C11.2925 21.2583 11.666 21.1572 12.085 21.1572C12.7324 21.1572 13.2554 21.3813 13.6538 21.8296C14.0552 22.2778 14.2559 22.874 14.2559 23.6182V23.6753C14.2559 24.1382 14.1665 24.5542 13.9878 24.9233C13.812 25.2896 13.5586 25.5752 13.2275 25.7803C12.8994 25.9854 12.5215 26.0879 12.0938 26.0879C11.4492 26.0879 10.9263 25.8638 10.5249 25.4155C10.1265 24.9673 9.92725 24.374 9.92725 23.6357V23.5786ZM10.7446 23.6753C10.7446 24.2026 10.8662 24.626 11.1094 24.9453C11.3555 25.2646 11.6836 25.4243 12.0938 25.4243C12.5068 25.4243 12.835 25.2632 13.0781 24.9409C13.3213 24.6157 13.4429 24.1616 13.4429 23.5786C13.4429 23.0571 13.3184 22.6353 13.0693 22.313C12.8232 21.9878 12.4951 21.8252 12.085 21.8252C11.6836 21.8252 11.3599 21.9849 11.1138 22.3042C10.8677 22.6235 10.7446 23.0806 10.7446 23.6753ZM16.04 21.2451L16.062 21.7725C16.4106 21.3623 16.8809 21.1572 17.4727 21.1572C18.1377 21.1572 18.5903 21.4121 18.8306 21.9219C18.9888 21.6934 19.1938 21.5088 19.4458 21.3682C19.7007 21.2275 20.001 21.1572 20.3467 21.1572C21.3896 21.1572 21.9199 21.7095 21.9375 22.814V26H21.1245V22.8623C21.1245 22.5225 21.0469 22.269 20.8916 22.1021C20.7363 21.9321 20.4756 21.8472 20.1094 21.8472C19.8076 21.8472 19.5571 21.938 19.3579 22.1196C19.1587 22.2983 19.043 22.54 19.0107 22.8447V26H18.1934V22.8843C18.1934 22.1929 17.855 21.8472 17.1782 21.8472C16.645 21.8472 16.2803 22.0742 16.084 22.5283V26H15.271V21.2451H16.04Z" fill="#DE4973"/>
</svg>
